<?xml version="1.0" encoding="utf-8"?>
<!-- Generator: Adobe Illustrator 26.3.1, SVG Export Plug-In . SVG Version: 6.00 Build 0)  -->
<svg version="1.1" id="Warstwa_1" xmlns="http://www.w3.org/2000/svg" xmlns:xlink="http://www.w3.org/1999/xlink" x="0px" y="0px"
	 viewBox="0 0 298.6 294.8" style="enable-background:new 0 0 298.6 294.8;" xml:space="preserve">
<style type="text/css">
	.st0{fill:#FFFFFF;}
	.st1{fill-rule:evenodd;clip-rule:evenodd;fill:#FFFFFF;}
</style>
<g>
	<path class="st0" d="M214.2,17.7l-1.4,1.2v-1.7l1.4-1.2V8.1h1.9v6.3l1.5-1.2v1.7l-1.5,1.2v7.8h-1.9V17.7z M201.1,18.2
		c-0.7,0.3-1.8,0.5-3.2,0.7c-0.8,0.1-1.4,0.2-1.7,0.4c-0.3,0.1-0.6,0.4-0.8,0.6c-0.2,0.3-0.3,0.6-0.3,0.9c0,0.5,0.2,0.9,0.6,1.3
		c0.4,0.3,1,0.5,1.7,0.5c0.7,0,1.4-0.2,2-0.5c0.6-0.3,1-0.8,1.3-1.3c0.2-0.4,0.3-1.1,0.3-1.9V18.2z M201.2,22.5
		c-0.7,0.6-1.4,1-2.1,1.3c-0.7,0.3-1.4,0.4-2.1,0.4c-1.3,0-2.2-0.3-2.9-0.9c-0.7-0.6-1-1.4-1-2.4c0-0.6,0.1-1.1,0.4-1.5
		c0.3-0.5,0.6-0.8,1-1.1c0.4-0.3,0.9-0.5,1.4-0.6c0.4-0.1,1-0.2,1.7-0.3c1.6-0.2,2.7-0.4,3.5-0.7c0-0.3,0-0.4,0-0.5
		c0-0.8-0.2-1.4-0.6-1.7c-0.5-0.4-1.2-0.7-2.2-0.7c-0.9,0-1.6,0.2-2,0.5c-0.4,0.3-0.8,0.9-1,1.7l-1.9-0.3c0.2-0.8,0.5-1.5,0.9-2
		c0.4-0.5,1-0.9,1.7-1.2c0.7-0.3,1.6-0.4,2.6-0.4c1,0,1.8,0.1,2.4,0.3c0.6,0.2,1.1,0.5,1.4,0.9c0.3,0.3,0.5,0.8,0.6,1.3
		c0.1,0.3,0.1,0.9,0.1,1.8v2.6c0,1.8,0,3,0.1,3.4c0.1,0.5,0.3,0.9,0.5,1.4h-2C201.4,23.5,201.3,23.1,201.2,22.5z M180.6,23.9V12.5
		h1.9v11.5H180.6z M180.6,10.3V8.1h1.9v2.2H180.6z M160.3,23.9v-1.6l7.3-8.4c-0.8,0-1.6,0.1-2.2,0.1h-4.7v-1.6h9.4v1.3l-6.2,7.3
		l-1.2,1.3c0.9-0.1,1.7-0.1,2.4-0.1h5.3v1.7H160.3z M142.1,18.2c0,1.5,0.3,2.6,0.9,3.3c0.6,0.7,1.3,1.1,2.2,1.1c0.8,0,1.6-0.4,2.2-1
		c0.6-0.7,0.9-1.8,0.9-3.2c0-1.6-0.3-2.7-0.9-3.4c-0.6-0.7-1.3-1.1-2.2-1.1c-0.9,0-1.6,0.4-2.2,1.1
		C142.4,15.6,142.1,16.7,142.1,18.2z M148.3,23.9v-1.4c-0.7,1.1-1.8,1.7-3.2,1.7c-0.9,0-1.8-0.3-2.5-0.8c-0.8-0.5-1.4-1.2-1.8-2.1
		c-0.4-0.9-0.6-1.9-0.6-3.1c0-1.1,0.2-2.2,0.6-3.1c0.4-0.9,1-1.7,1.7-2.1c0.8-0.5,1.6-0.7,2.6-0.7c0.7,0,1.3,0.1,1.8,0.4
		c0.5,0.3,1,0.7,1.3,1.1V8.1h1.9v15.8H148.3z M121.5,28.4l-0.2-1.8c0.4,0.1,0.8,0.2,1.1,0.2c0.4,0,0.8-0.1,1-0.2
		c0.3-0.1,0.5-0.3,0.6-0.6c0.1-0.2,0.3-0.7,0.6-1.4c0-0.1,0.1-0.3,0.2-0.5l-4.3-11.5h2.1l2.4,6.6c0.3,0.8,0.6,1.7,0.8,2.7
		c0.2-0.9,0.5-1.8,0.8-2.6l2.5-6.7h1.9l-4.4,11.7c-0.5,1.3-0.8,2.1-1.1,2.6c-0.3,0.6-0.7,1.1-1.2,1.4c-0.5,0.3-1,0.5-1.6,0.5
		C122.4,28.6,122,28.5,121.5,28.4z M95.7,23.9L91.5,8.1h2.2l2.4,10.4c0.3,1.1,0.5,2.2,0.7,3.2c0.4-1.7,0.6-2.7,0.7-2.9l3-10.7h2.5
		l2.3,8c0.6,2,1,3.9,1.2,5.6c0.2-1,0.5-2.1,0.8-3.4l2.5-10.2h2.1l-4.3,15.8h-2l-3.3-12.1c-0.3-1-0.4-1.6-0.5-1.9
		c-0.2,0.7-0.3,1.3-0.5,1.9l-3.4,12.1H95.7z"/>
	<path class="st0" d="M265.4,276.3c0,1.5,0.3,2.6,1,3.3c0.6,0.7,1.4,1.1,2.4,1.1c1,0,1.8-0.4,2.4-1.1c0.6-0.7,1-1.9,1-3.4
		c0-1.4-0.3-2.5-1-3.2c-0.6-0.7-1.4-1.1-2.4-1.1c-1,0-1.8,0.4-2.4,1.1C265.7,273.8,265.4,274.9,265.4,276.3 M263.4,276.3
		c0-2.1,0.6-3.7,1.8-4.7c1-0.8,2.2-1.3,3.6-1.3c1.6,0,2.9,0.5,3.9,1.5c1,1,1.5,2.5,1.5,4.3c0,1.5-0.2,2.6-0.7,3.5
		c-0.4,0.8-1.1,1.5-1.9,2c-0.9,0.5-1.8,0.7-2.8,0.7c-1.6,0-2.9-0.5-3.9-1.5C263.8,279.7,263.4,278.3,263.4,276.3z M253,276.1
		c0,1.5,0.3,2.6,0.9,3.3c0.6,0.7,1.3,1,2.2,1c0.9,0,1.6-0.3,2.2-1c0.6-0.7,0.9-1.8,0.9-3.2c0-1.4-0.3-2.5-0.9-3.2
		c-0.6-0.7-1.4-1.1-2.3-1.1c-0.9,0-1.6,0.3-2.2,1.1C253.3,273.7,253,274.7,253,276.1z M251.4,283l1.9,0.3c0.1,0.6,0.3,1,0.7,1.3
		c0.5,0.4,1.1,0.5,2,0.5c0.9,0,1.6-0.2,2.1-0.5c0.5-0.4,0.8-0.9,1-1.5c0.1-0.4,0.1-1.2,0.1-2.5c-0.9,1-1.9,1.5-3.2,1.5
		c-1.6,0-2.8-0.6-3.7-1.7c-0.9-1.1-1.3-2.5-1.3-4.1c0-1.1,0.2-2.1,0.6-3c0.4-0.9,1-1.6,1.7-2.1c0.8-0.5,1.6-0.8,2.6-0.8
		c1.4,0,2.5,0.6,3.3,1.6v-1.4h1.8v9.9c0,1.8-0.2,3.1-0.5,3.8c-0.4,0.7-0.9,1.3-1.7,1.8c-0.8,0.4-1.8,0.6-2.9,0.6
		c-1.4,0-2.5-0.3-3.3-0.9C251.8,285.2,251.4,284.2,251.4,283z M241,275.2h6.4c-0.1-1-0.3-1.7-0.7-2.2c-0.6-0.8-1.4-1.1-2.4-1.1
		c-0.9,0-1.6,0.3-2.3,0.9C241.4,273.4,241,274.2,241,275.2z M247.3,278.4l2,0.2c-0.3,1.2-0.9,2.1-1.8,2.7c-0.9,0.6-2,1-3.3,1
		c-1.7,0-3-0.5-4-1.5c-1-1-1.5-2.5-1.5-4.3c0-1.9,0.5-3.4,1.5-4.5c1-1.1,2.3-1.6,3.9-1.6c1.5,0,2.8,0.5,3.8,1.6c1,1,1.5,2.5,1.5,4.4
		c0,0.1,0,0.3,0,0.5h-8.6c0.1,1.3,0.4,2.2,1.1,2.9c0.6,0.7,1.4,1,2.4,1c0.7,0,1.3-0.2,1.8-0.6C246.6,279.8,247,279.2,247.3,278.4z
		 M234.6,282.1v-11.5h1.9v11.5H234.6z M234.6,268.5v-2.2h1.9v2.2H234.6z M223.5,282.1v-15.8h1.9v9l4.6-4.7h2.5l-4.4,4.3l4.8,7.2
		h-2.4l-3.8-5.9l-1.4,1.3v4.5H223.5z M211.7,278.6l1.9-0.3c0.1,0.8,0.4,1.4,0.9,1.8c0.5,0.4,1.2,0.6,2.1,0.6c0.9,0,1.6-0.2,2-0.5
		c0.4-0.4,0.6-0.8,0.6-1.3c0-0.4-0.2-0.8-0.6-1c-0.3-0.2-0.9-0.4-2-0.7c-1.4-0.4-2.4-0.7-3-0.9c-0.6-0.3-1-0.6-1.3-1.1
		c-0.3-0.5-0.4-1-0.4-1.5c0-0.5,0.1-1,0.4-1.4c0.2-0.4,0.6-0.8,1-1.1c0.3-0.2,0.7-0.4,1.2-0.6c0.5-0.2,1.1-0.2,1.7-0.2
		c0.9,0,1.7,0.1,2.4,0.4c0.7,0.3,1.2,0.6,1.5,1.1c0.3,0.4,0.5,1,0.7,1.8l-1.9,0.3c-0.1-0.6-0.3-1-0.8-1.4c-0.4-0.3-1-0.5-1.8-0.5
		c-0.9,0-1.5,0.1-1.9,0.4c-0.4,0.3-0.6,0.6-0.6,1c0,0.3,0.1,0.5,0.2,0.7c0.2,0.2,0.4,0.4,0.7,0.5c0.2,0.1,0.8,0.2,1.7,0.5
		c1.4,0.4,2.3,0.7,2.9,0.9c0.5,0.2,1,0.6,1.3,1c0.3,0.4,0.5,1,0.5,1.7c0,0.6-0.2,1.3-0.6,1.8c-0.4,0.6-0.9,1-1.6,1.3
		c-0.7,0.3-1.5,0.5-2.4,0.5c-1.5,0-2.6-0.3-3.4-0.9C212.4,280.8,211.9,279.8,211.7,278.6z M203.5,269.2l1.4-3h2.5l-2.4,3H203.5z
		 M200.2,282.1v-11.5h1.7v1.6c0.8-1.3,2.1-1.9,3.7-1.9c0.7,0,1.3,0.1,1.9,0.4c0.6,0.3,1,0.6,1.3,1c0.3,0.4,0.5,0.9,0.6,1.4
		c0.1,0.4,0.1,1,0.1,1.9v7.1h-2v-7c0-0.8-0.1-1.4-0.2-1.8c-0.2-0.4-0.4-0.7-0.8-0.9c-0.4-0.2-0.8-0.4-1.4-0.4
		c-0.8,0-1.5,0.3-2.1,0.8c-0.6,0.5-0.9,1.5-0.9,3v6.3H200.2z M195.2,276.3c-0.7,0.3-1.8,0.5-3.2,0.7c-0.8,0.1-1.4,0.2-1.7,0.4
		c-0.3,0.1-0.6,0.4-0.8,0.6c-0.2,0.3-0.3,0.6-0.3,0.9c0,0.5,0.2,0.9,0.6,1.3c0.4,0.3,1,0.5,1.7,0.5c0.7,0,1.4-0.2,2-0.5
		c0.6-0.3,1-0.8,1.3-1.3c0.2-0.4,0.3-1.1,0.3-1.9V276.3z M195.4,280.6c-0.7,0.6-1.4,1-2.1,1.3c-0.7,0.3-1.4,0.4-2.1,0.4
		c-1.3,0-2.2-0.3-2.9-0.9c-0.7-0.6-1-1.4-1-2.4c0-0.6,0.1-1.1,0.4-1.5c0.3-0.5,0.6-0.8,1-1.1c0.4-0.3,0.9-0.5,1.4-0.6
		c0.4-0.1,1-0.2,1.7-0.3c1.6-0.2,2.7-0.4,3.5-0.7c0-0.3,0-0.4,0-0.5c0-0.8-0.2-1.4-0.6-1.7c-0.5-0.4-1.2-0.7-2.2-0.7
		c-0.9,0-1.6,0.2-2,0.5c-0.4,0.3-0.8,0.9-1,1.7l-1.9-0.3c0.2-0.8,0.5-1.5,0.9-2c0.4-0.5,1-0.9,1.7-1.2c0.8-0.3,1.6-0.4,2.6-0.4
		c1,0,1.8,0.1,2.4,0.3c0.6,0.2,1.1,0.5,1.4,0.9c0.3,0.3,0.5,0.8,0.6,1.3c0.1,0.3,0.1,0.9,0.1,1.8v2.6c0,1.8,0,3,0.1,3.4
		c0.1,0.5,0.2,0.9,0.5,1.4h-2C195.5,281.7,195.4,281.2,195.4,280.6z M176.9,276.3c0,1.5,0.3,2.6,0.9,3.3c0.6,0.7,1.4,1.1,2.2,1.1
		c0.9,0,1.6-0.3,2.2-1c0.6-0.7,0.9-1.8,0.9-3.2c0-1.6-0.3-2.7-0.9-3.4c-0.6-0.7-1.3-1.1-2.2-1.1c-0.9,0-1.6,0.3-2.2,1.1
		C177.2,273.7,176.9,274.8,176.9,276.3z M183,282.1v-1.4c-0.7,1.1-1.8,1.7-3.2,1.7c-0.9,0-1.8-0.2-2.5-0.8c-0.8-0.5-1.4-1.2-1.8-2.1
		c-0.4-0.9-0.6-1.9-0.6-3.1c0-1.1,0.2-2.2,0.6-3.1c0.4-0.9,1-1.7,1.7-2.1c0.8-0.5,1.6-0.7,2.6-0.7c0.7,0,1.3,0.1,1.8,0.4
		c0.5,0.3,1,0.7,1.3,1.1v-5.7h1.9v15.8H183z M166,275.8V274l6.7,0v5.9c-1,0.8-2.1,1.4-3.2,1.9c-1.1,0.4-2.2,0.6-3.4,0.6
		c-1.6,0-3-0.3-4.2-1c-1.3-0.7-2.2-1.6-2.9-2.9c-0.6-1.3-1-2.7-1-4.2c0-1.5,0.3-3,1-4.3c0.6-1.3,1.6-2.3,2.8-3c1.2-0.6,2.6-1,4.2-1
		c1.1,0,2.2,0.2,3.1,0.6c0.9,0.4,1.7,0.9,2.2,1.5c0.5,0.7,0.9,1.5,1.2,2.6l-1.9,0.5c-0.2-0.8-0.5-1.4-0.9-1.9
		c-0.4-0.5-0.9-0.8-1.5-1.1c-0.7-0.3-1.4-0.4-2.2-0.4c-1,0-1.8,0.1-2.5,0.4c-0.7,0.3-1.3,0.7-1.7,1.1c-0.4,0.5-0.8,1-1,1.6
		c-0.4,1-0.6,2-0.6,3.2c0,1.4,0.2,2.6,0.7,3.5c0.5,1,1.2,1.7,2.1,2.1c0.9,0.5,1.9,0.7,3,0.7c0.9,0,1.8-0.2,2.7-0.5
		c0.9-0.3,1.5-0.7,2-1.1v-2.9H166z M147.5,282.1v-1.7c-0.9,1.3-2.1,1.9-3.6,1.9c-0.7,0-1.3-0.1-1.9-0.4c-0.6-0.3-1-0.6-1.3-1
		c-0.3-0.4-0.5-0.9-0.6-1.4c-0.1-0.4-0.1-1-0.1-1.8v-7.1h1.9v6.4c0,1,0,1.7,0.1,2c0.1,0.5,0.4,0.9,0.8,1.2c0.4,0.3,0.9,0.4,1.5,0.4
		c0.6,0,1.1-0.1,1.6-0.4c0.5-0.3,0.9-0.7,1.1-1.2c0.2-0.5,0.3-1.3,0.3-2.2v-6.1h1.9v11.5H147.5z M138,280.3l0.3,1.7
		c-0.5,0.1-1,0.2-1.5,0.2c-0.7,0-1.3-0.1-1.6-0.3c-0.4-0.2-0.7-0.5-0.8-0.9c-0.2-0.4-0.2-1.1-0.2-2.3v-6.6h-1.4v-1.5h1.4v-2.8
		l1.9-1.2v4h2v1.5h-2v6.7c0,0.6,0,0.9,0.1,1.1c0.1,0.2,0.2,0.3,0.3,0.4c0.2,0.1,0.4,0.1,0.7,0.1C137.4,280.4,137.7,280.4,138,280.3z
		 M123,275.2h6.4c-0.1-1-0.3-1.7-0.7-2.2c-0.6-0.8-1.4-1.1-2.4-1.1c-0.9,0-1.6,0.3-2.3,0.9C123.4,273.4,123,274.2,123,275.2z
		 M129.3,278.4l2,0.2c-0.3,1.2-0.9,2.1-1.8,2.7c-0.9,0.6-2,1-3.3,1c-1.7,0-3-0.5-4-1.5c-1-1-1.5-2.5-1.5-4.3c0-1.9,0.5-3.4,1.5-4.5
		c1-1.1,2.3-1.6,3.9-1.6c1.5,0,2.8,0.5,3.8,1.6c1,1,1.5,2.5,1.5,4.4c0,0.1,0,0.3,0,0.5h-8.5c0.1,1.3,0.4,2.2,1.1,2.9
		c0.6,0.7,1.4,1,2.4,1c0.7,0,1.3-0.2,1.8-0.6C128.7,279.8,129,279.2,129.3,278.4z M119.6,280.3l0.3,1.7c-0.5,0.1-1,0.2-1.5,0.2
		c-0.7,0-1.3-0.1-1.6-0.3c-0.4-0.2-0.7-0.5-0.8-0.9c-0.2-0.4-0.2-1.1-0.2-2.3v-6.6h-1.4v-1.5h1.4v-2.8l1.9-1.2v4h2v1.5h-2v6.7
		c0,0.6,0,0.9,0.1,1.1c0.1,0.2,0.2,0.3,0.3,0.4c0.2,0.1,0.4,0.1,0.7,0.1C119,280.4,119.2,280.4,119.6,280.3z M104.2,286.5l-0.2-1.8
		c0.4,0.1,0.8,0.2,1.1,0.2c0.4,0,0.8-0.1,1-0.2c0.3-0.1,0.5-0.3,0.6-0.6c0.1-0.2,0.3-0.7,0.6-1.4c0-0.1,0.1-0.3,0.2-0.5l-4.3-11.5
		h2.1l2.4,6.6c0.3,0.8,0.6,1.7,0.8,2.7c0.2-0.9,0.5-1.8,0.8-2.6l2.5-6.7h1.9l-4.4,11.7c-0.5,1.3-0.8,2.1-1.1,2.6
		c-0.3,0.6-0.7,1.1-1.2,1.4c-0.4,0.3-1,0.4-1.6,0.4C105.1,286.7,104.7,286.6,104.2,286.5z M92.5,278.6l1.9-0.3
		c0.1,0.8,0.4,1.4,0.9,1.8c0.5,0.4,1.2,0.6,2.1,0.6c0.9,0,1.6-0.2,2-0.5c0.4-0.4,0.6-0.8,0.6-1.3c0-0.4-0.2-0.8-0.6-1
		c-0.3-0.2-0.9-0.4-2-0.7c-1.4-0.4-2.4-0.7-3-0.9c-0.5-0.3-1-0.6-1.2-1.1c-0.3-0.5-0.4-1-0.4-1.5c0-0.5,0.1-1,0.4-1.4
		c0.2-0.4,0.6-0.8,1-1.1c0.3-0.2,0.7-0.4,1.2-0.6c0.5-0.2,1.1-0.2,1.7-0.2c0.9,0,1.7,0.1,2.4,0.4c0.7,0.3,1.2,0.6,1.5,1.1
		c0.3,0.4,0.5,1,0.7,1.8l-1.9,0.3c-0.1-0.6-0.3-1-0.8-1.4c-0.4-0.3-1-0.5-1.7-0.5c-0.9,0-1.5,0.1-1.9,0.4c-0.4,0.3-0.6,0.6-0.6,1
		c0,0.3,0.1,0.5,0.2,0.7c0.2,0.2,0.4,0.4,0.7,0.5c0.2,0.1,0.8,0.2,1.7,0.5c1.4,0.4,2.3,0.7,2.9,0.9c0.5,0.2,1,0.6,1.3,1
		c0.3,0.4,0.5,1,0.5,1.7c0,0.6-0.2,1.3-0.6,1.8c-0.4,0.6-0.9,1-1.6,1.3c-0.7,0.3-1.5,0.5-2.4,0.5c-1.5,0-2.6-0.3-3.4-0.9
		C93.2,280.8,92.7,279.8,92.5,278.6z M85.9,282.1v-11.5h1.7v1.7c0.4-0.8,0.9-1.3,1.2-1.6c0.4-0.3,0.8-0.4,1.2-0.4
		c0.7,0,1.3,0.2,2,0.6l-0.7,1.8c-0.5-0.3-0.9-0.4-1.4-0.4c-0.4,0-0.8,0.1-1.1,0.4c-0.3,0.3-0.6,0.6-0.7,1.1
		c-0.2,0.7-0.3,1.4-0.3,2.3v6H85.9z M75.1,275.2h6.4c-0.1-1-0.3-1.7-0.7-2.2c-0.6-0.8-1.4-1.1-2.4-1.1c-0.9,0-1.6,0.3-2.3,0.9
		C75.5,273.4,75.1,274.2,75.1,275.2z M81.4,278.4l2,0.2c-0.3,1.2-0.9,2.1-1.8,2.7c-0.9,0.6-2,1-3.3,1c-1.7,0-3-0.5-4-1.5
		c-1-1-1.5-2.5-1.5-4.3c0-1.9,0.5-3.4,1.5-4.5c1-1.1,2.3-1.6,3.9-1.6c1.5,0,2.8,0.5,3.8,1.6c1,1,1.5,2.5,1.5,4.4c0,0.1,0,0.3,0,0.5
		h-8.6c0.1,1.3,0.4,2.2,1.1,2.9c0.6,0.7,1.4,1,2.4,1c0.7,0,1.3-0.2,1.8-0.6C80.7,279.8,81.1,279.2,81.4,278.4z M59.7,282.1
		l-3.5-11.5h2l1.8,6.6l0.7,2.5c0-0.1,0.2-0.9,0.6-2.4l1.8-6.7h2l1.7,6.6l0.6,2.2l0.7-2.2l2-6.6H72l-3.6,11.5h-2l-1.8-6.9l-0.4-2
		l-2.3,8.8H59.7z M52.7,282.1v-11.5h1.9v11.5H52.7z M52.7,268.5v-2.2h1.9v2.2H52.7z M40.4,282.1v-11.5h1.7v1.6
		c0.8-1.3,2.1-1.9,3.7-1.9c0.7,0,1.3,0.1,1.9,0.4c0.6,0.3,1,0.6,1.3,1c0.3,0.4,0.5,0.9,0.6,1.4c0.1,0.4,0.1,1,0.1,1.9v7.1h-1.9v-7
		c0-0.8-0.1-1.4-0.2-1.8c-0.2-0.4-0.4-0.7-0.8-0.9c-0.4-0.2-0.8-0.4-1.4-0.4c-0.8,0-1.5,0.3-2.1,0.8c-0.6,0.5-0.9,1.5-0.9,3v6.3
		H40.4z M35.1,266.2h2.1v9.1c0,1.6-0.2,2.9-0.5,3.8c-0.4,0.9-1,1.7-2,2.3c-0.9,0.6-2.2,0.9-3.7,0.9c-1.5,0-2.7-0.3-3.6-0.8
		c-0.9-0.5-1.6-1.2-2-2.2c-0.4-1-0.6-2.3-0.6-4v-9.1h2.1v9.1c0,1.4,0.1,2.4,0.4,3c0.3,0.7,0.7,1.2,1.3,1.5c0.6,0.3,1.4,0.5,2.3,0.5
		c1.5,0,2.6-0.4,3.3-1.1c0.7-0.7,1-2,1-4V266.2z"/>
	<path class="st1" d="M148.5,38.6c77.2,0,139.8,1,139.8,2.3c0,1.3-62.6,2.3-139.8,2.3c-77.2,0-139.8-1-139.8-2.3
		C8.8,39.6,71.4,38.6,148.5,38.6"/>
	<path class="st1" d="M148.5,251.5c77.2,0,139.8,1,139.8,2.3c0,1.3-62.6,2.3-139.8,2.3c-77.2,0-139.8-1-139.8-2.3
		C8.8,252.5,71.4,251.5,148.5,251.5"/>
	<path class="st0" d="M209.1,78.5l4.6,3.5l-11.2,14.8l-4.6-3.5L209.1,78.5z M117.6,64.6l13.7-3.7l1,3.9l-8.1,2.2L125,70l6.9-1.9
		l1,3.6l-6.9,1.9l2,7.3l-5.6,1.5L117.6,64.6z M57.2,198.3l-2.1-7.2l10-5.9l-11.6,0.3l-2.1-7.2l17.8-5.1l1.3,4.5l-13.6,3.9l14.6-0.4
		l1.2,4.1l-12.6,7.4l13.6-3.9l1.3,4.5L57.2,198.3z"/>
	<path class="st0" d="M225.2,190.6l10.7,4.8l-0.8,1.8l-10.7-4.8L225.2,190.6z M238,196.3l2.1,0.9l-0.8,1.8l-2.1-0.9L238,196.3z
		 M229,180l15.5,5l-0.6,1.9l-8.8-2.9l3.1,6l-0.8,2.5l-2.8-5.6l-8.6,2.4l0.8-2.3l6.9-1.8l-0.9-1.8l-4.4-1.4L229,180z M226.8,167.8
		l1.9,0.1c-0.2,0.4-0.3,0.8-0.4,1.1c-0.1,0.4-0.1,0.8,0,1.1c0.1,0.3,0.3,0.5,0.5,0.8c0.2,0.2,0.6,0.4,1.4,0.9
		c0.1,0.1,0.3,0.1,0.4,0.3l12.4-2.3l-0.4,2.1l-7.1,1.2c-0.9,0.2-1.9,0.3-2.8,0.4c0.9,0.4,1.7,0.8,2.5,1.3l6.3,3.7l-0.3,2l-11-6.5
		c-1.2-0.7-2-1.2-2.4-1.6c-0.6-0.5-1-0.9-1.2-1.5c-0.2-0.5-0.3-1.1-0.2-1.7C226.4,168.7,226.6,168.3,226.8,167.8z M233,166.8
		l-1.8,0.2c-0.1-0.6-0.1-1.1-0.1-1.5c0.1-0.7,0.2-1.3,0.5-1.7c0.3-0.4,0.6-0.6,1-0.8c0.4-0.1,1.2-0.2,2.4-0.1l6.8,0.5l0.1-1.5
		l1.5,0.1l-0.1,1.5l2.9,0.2l1.1,2.1l-4.1-0.3l-0.1,2l-1.5-0.1l0.1-2l-6.9-0.5c-0.6,0-0.9,0-1.1,0c-0.2,0.1-0.3,0.2-0.4,0.3
		c-0.1,0.2-0.2,0.4-0.2,0.7C232.9,166.2,232.9,166.5,233,166.8z M237.7,156.9c-0.4-0.7-0.7-1.8-1-3.2c-0.2-0.8-0.4-1.4-0.5-1.7
		c-0.2-0.3-0.4-0.6-0.7-0.7c-0.3-0.2-0.6-0.2-1-0.2c-0.5,0-0.9,0.3-1.3,0.7c-0.3,0.4-0.4,1-0.4,1.8c0.1,0.8,0.3,1.4,0.7,2
		c0.4,0.6,0.9,1,1.5,1.2c0.5,0.2,1.1,0.2,2,0.1L237.7,156.9z M233.2,157.4c-0.7-0.7-1.2-1.4-1.5-2c-0.3-0.7-0.5-1.4-0.6-2.2
		c-0.1-1.3,0.1-2.3,0.7-3.1c0.6-0.7,1.3-1.2,2.3-1.2c0.6,0,1.1,0,1.6,0.3c0.5,0.2,0.9,0.5,1.2,0.9c0.3,0.4,0.6,0.9,0.8,1.4
		c0.1,0.4,0.3,1,0.4,1.7c0.3,1.6,0.7,2.8,1,3.5c0.3,0,0.4,0,0.5,0c0.8-0.1,1.4-0.3,1.7-0.7c0.4-0.5,0.6-1.3,0.5-2.3
		c-0.1-0.9-0.3-1.6-0.7-2c-0.4-0.4-1-0.7-1.8-0.8l0.1-2c0.8,0.1,1.5,0.3,2.1,0.7c0.6,0.4,1,0.9,1.3,1.7c0.3,0.7,0.6,1.6,0.6,2.6
		c0.1,1,0,1.8-0.1,2.5c-0.2,0.6-0.4,1.1-0.8,1.5c-0.3,0.3-0.8,0.6-1.3,0.7c-0.3,0.1-0.9,0.2-1.8,0.3l-2.6,0.2
		c-1.9,0.2-3,0.3-3.5,0.4c-0.5,0.1-0.9,0.3-1.4,0.6l-0.2-2.1C232.2,157.7,232.7,157.5,233.2,157.4z M227.4,131.2l11.5-2.6l0.4,1.7
		l-1.6,0.4c0.6,0.2,1.2,0.6,1.7,1.1c0.5,0.5,0.8,1.2,1,1.9c0.2,0.8,0.2,1.6,0,2.2c-0.2,0.6-0.6,1.1-1.2,1.5c1.5,0.6,2.5,1.6,2.8,3.1
		c0.3,1.1,0.1,2.1-0.3,2.8c-0.5,0.8-1.4,1.3-2.7,1.6l-7.9,1.8l-0.4-1.9l7.2-1.7c0.8-0.2,1.3-0.4,1.6-0.6c0.3-0.2,0.5-0.5,0.7-0.9
		c0.1-0.4,0.1-0.8,0-1.2c-0.2-0.8-0.6-1.4-1.3-1.8c-0.7-0.4-1.6-0.5-2.8-0.2l-6.7,1.5l-0.4-1.9l7.4-1.7c0.9-0.2,1.5-0.5,1.8-0.9
		c0.4-0.4,0.5-1,0.3-1.7c-0.1-0.5-0.4-1-0.8-1.4c-0.4-0.4-0.9-0.6-1.5-0.7c-0.6-0.1-1.4,0-2.5,0.2l-5.9,1.4L227.4,131.2z
		 M223.8,124.5l10.7-5l0.8,1.6l-1.6,0.8c0.9,0.1,1.6,0.2,2,0.5c0.4,0.2,0.7,0.6,0.9,1c0.3,0.6,0.4,1.3,0.3,2.1l-2,0.2
		c0.1-0.6,0-1.1-0.2-1.5c-0.2-0.4-0.5-0.7-0.9-0.9c-0.4-0.2-0.8-0.3-1.3-0.2c-0.7,0.1-1.5,0.3-2.2,0.7l-5.6,2.6L223.8,124.5z
		 M223.6,111.6c-1.3,0.8-2.1,1.6-2.4,2.5c-0.3,0.9-0.2,1.9,0.3,2.7c0.5,0.9,1.2,1.4,2.2,1.6c1,0.2,2.1-0.1,3.5-0.9
		c1.3-0.7,2.1-1.6,2.4-2.5c0.3-0.9,0.2-1.8-0.3-2.7c-0.5-0.9-1.2-1.4-2.2-1.6S224.9,110.8,223.6,111.6z M222.6,109.8
		c1.9-1.1,3.6-1.4,5.1-0.8c1.3,0.4,2.3,1.3,3,2.6c0.8,1.4,1,2.8,0.6,4.2c-0.4,1.4-1.4,2.6-3,3.5c-1.3,0.8-2.5,1.2-3.4,1.2
		c-1,0-1.9-0.2-2.7-0.7c-0.9-0.5-1.5-1.2-2-2.1c-0.8-1.4-1-2.8-0.6-4.3C219.8,112,220.8,110.8,222.6,109.8z M214.1,108.8l7.9-6.4
		l-1.1-1.4l1.2-1l1.1,1.4l1-0.8c0.6-0.5,1.1-0.8,1.5-0.9c0.5-0.2,1.1-0.2,1.6,0c0.6,0.2,1.1,0.6,1.7,1.3c0.4,0.4,0.7,1,1,1.6
		l-1.5,0.9c-0.2-0.4-0.4-0.7-0.7-1c-0.4-0.5-0.8-0.7-1.1-0.8c-0.4,0-0.8,0.2-1.4,0.6l-0.8,0.7l1.4,1.8l-1.2,1l-1.4-1.8l-7.9,6.4
		L214.1,108.8z M205.3,99.1l8.5-8.2l1.2,1.3l-1.2,1.2c1.5-0.3,2.9,0.2,4,1.3c0.5,0.5,0.9,1.1,1.1,1.7c0.2,0.6,0.3,1.2,0.2,1.7
		c-0.1,0.5-0.3,1-0.6,1.5c-0.2,0.3-0.7,0.8-1.3,1.4l-5.2,5l-1.4-1.4l5.1-5c0.6-0.6,1-1,1.1-1.4c0.2-0.4,0.2-0.8,0.1-1.3
		c-0.1-0.5-0.3-0.9-0.7-1.3c-0.6-0.6-1.3-0.9-2.1-1c-0.8-0.1-1.8,0.4-2.9,1.5l-4.6,4.5L205.3,99.1z M187.6,87.1l5.2-10.6l1.8,0.9
		L189.4,88L187.6,87.1z M193.7,74.6l1-2.1l1.8,0.9l-1,2.1L193.7,74.6z M177.2,82.4l4.2-11l1.9,0.7l-4.2,11L177.2,82.4z M182.2,69.4
		l0.8-2.1l1.9,0.7l-0.8,2.1L182.2,69.4z M166.4,79.5l3.7-15.8l1.9,0.4l-2.1,9l5.7-3.6l2.5,0.6l-5.4,3.2l3.2,8.3l-2.4-0.6l-2.4-6.7
		l-1.7,1l-1,4.5L166.4,79.5z M154.4,82.2l0-1.9c0.4,0.2,0.8,0.3,1.1,0.3c0.4,0.1,0.8,0,1.1-0.1c0.3-0.1,0.5-0.3,0.7-0.5
		c0.1-0.2,0.4-0.6,0.8-1.4c0.1-0.1,0.1-0.3,0.2-0.5l-3-12.2l2.1,0.3l1.6,7.1c0.2,0.9,0.4,1.8,0.5,2.8c0.3-0.9,0.7-1.7,1.1-2.6
		l3.3-6.5l2,0.2l-5.9,11.3c-0.6,1.2-1.1,2.1-1.4,2.5c-0.4,0.6-0.9,1-1.4,1.3c-0.5,0.2-1.1,0.3-1.7,0.3
		C155.3,82.6,154.9,82.5,154.4,82.2z M142.7,78l0-1.6l7.3-8.7c-0.9,0.1-1.6,0.1-2.2,0.1l-4.8,0.1l0-1.6l9.6-0.2l0,1.3l-6.2,7.6
		l-1.2,1.4c0.9-0.1,1.7-0.1,2.5-0.1l5.4-0.1l0,1.7L142.7,78z M138.9,78.5l-1.4-11.7l2-0.2l1.4,11.7L138.9,78.5z M137.2,64.7
		l-0.3-2.3l2-0.2l0.3,2.3L137.2,64.7z M111.1,87.8l-1-2l2-1l1,2c0.4,0.8,0.5,1.4,0.5,2c0,0.6-0.3,1.1-0.7,1.7l-0.9-0.5
		c0.3-0.3,0.5-0.7,0.5-1.1c0-0.4-0.1-0.9-0.4-1.5L111.1,87.8z M106.3,90.6l-6.2-10l1.7-1.1l6.2,10L106.3,90.6z M98.9,78.8l-1.2-1.9
		l1.7-1.1l1.2,1.9L98.9,78.8z M97.1,97.3l-10-12.8l1.6-1.2l5.7,7.3l0.8-6.7l2-1.6l-0.9,6.2l8.5,2.8l-1.9,1.5l-6.8-2.3l-0.3,1.9
		l2.9,3.7L97.1,97.3z M92.2,108.5l-1.5-1.1c0.4-0.2,0.7-0.5,0.9-0.7c0.3-0.3,0.5-0.6,0.6-0.9c0.1-0.3,0.1-0.6,0-0.9
		c-0.1-0.2-0.3-0.7-0.6-1.5c-0.1-0.1-0.1-0.3-0.2-0.5l-11.6-5l1.5-1.5l6.6,3c0.8,0.4,1.7,0.8,2.6,1.3c-0.5-0.8-1-1.6-1.4-2.5
		l-3.2-6.6l1.4-1.4l5.5,11.5c0.6,1.2,1,2.1,1.1,2.7c0.2,0.7,0.3,1.3,0.2,1.9c-0.1,0.5-0.4,1-0.8,1.5C93,108.1,92.6,108.3,92.2,108.5
		z M86.4,105.7l1.6,0.9c-0.3,0.5-0.5,0.9-0.8,1.3c-0.5,0.6-0.9,0.9-1.3,1.1c-0.4,0.2-0.8,0.2-1.2,0.1c-0.4-0.1-1.1-0.5-2-1.3
		l-5.3-4.3l-0.9,1.1l-1.2-1l0.9-1.1l-2.3-1.8l0.3-2.3l3.2,2.6l1.3-1.6l1.2,1l-1.3,1.6l5.3,4.3c0.4,0.4,0.8,0.6,0.9,0.6
		c0.2,0,0.3,0,0.5,0c0.2-0.1,0.4-0.2,0.5-0.4C86.1,106.3,86.2,106,86.4,105.7z M77.1,111.3c-0.1,0.8-0.5,1.8-1.1,3.1
		c-0.4,0.8-0.6,1.3-0.6,1.7c-0.1,0.4,0,0.7,0.1,1c0.1,0.3,0.3,0.6,0.6,0.7c0.4,0.3,0.9,0.4,1.4,0.2c0.5-0.1,1-0.5,1.4-1.2
		c0.4-0.6,0.6-1.3,0.7-2c0-0.7-0.1-1.3-0.4-1.9c-0.3-0.4-0.8-0.9-1.5-1.4L77.1,111.3z M81,113.6c0.1,1,0.1,1.8,0,2.5
		c-0.2,0.7-0.4,1.4-0.9,2.1c-0.7,1.1-1.5,1.7-2.4,2c-0.9,0.2-1.8,0.1-2.6-0.4c-0.5-0.3-0.9-0.7-1.1-1.2c-0.3-0.5-0.4-1-0.4-1.5
		c0-0.5,0.1-1,0.2-1.6c0.1-0.4,0.4-0.9,0.7-1.7c0.7-1.5,1.2-2.6,1.4-3.4c-0.2-0.2-0.4-0.3-0.4-0.3c-0.7-0.4-1.3-0.6-1.7-0.5
		c-0.7,0.2-1.3,0.7-1.8,1.5c-0.5,0.8-0.8,1.5-0.7,2c0,0.6,0.3,1.1,0.9,1.8l-1.3,1.5c-0.6-0.6-1-1.2-1.2-1.8c-0.2-0.6-0.2-1.3,0-2.1
		c0.2-0.8,0.6-1.6,1.1-2.5c0.6-0.8,1.1-1.5,1.6-1.9c0.5-0.4,1-0.6,1.5-0.7c0.5,0,0.9,0,1.5,0.2c0.3,0.1,0.9,0.4,1.6,0.9l2.2,1.4
		c1.6,1,2.6,1.6,3,1.8c0.5,0.2,0.9,0.3,1.5,0.4l-1.1,1.7C81.9,114,81.5,113.8,81,113.6z M70.9,138.2L60,133.7l0.7-1.7l1.5,0.6
		c-0.4-0.6-0.6-1.2-0.7-1.9c-0.1-0.7,0-1.4,0.3-2.1c0.3-0.8,0.8-1.4,1.3-1.8c0.5-0.4,1.2-0.6,1.8-0.5c-0.9-1.4-1.1-2.8-0.6-4.1
		c0.4-1.1,1.1-1.8,1.9-2.1c0.8-0.3,1.9-0.3,3.1,0.2l7.5,3l-0.7,1.8l-6.9-2.8c-0.7-0.3-1.3-0.5-1.7-0.5c-0.4,0-0.7,0.1-1,0.3
		c-0.3,0.2-0.6,0.6-0.7,1c-0.3,0.8-0.3,1.5,0,2.2c0.3,0.7,1,1.3,2.1,1.7l6.3,2.6l-0.7,1.8l-7.1-2.9c-0.8-0.3-1.5-0.4-2-0.3
		c-0.5,0.1-0.9,0.5-1.2,1.2c-0.2,0.5-0.3,1.1-0.2,1.6c0.1,0.6,0.4,1,0.8,1.4c0.4,0.4,1.2,0.8,2.2,1.2l5.7,2.3L70.9,138.2z M62.3,148
		l1.3-6.5c-1-0.1-1.8,0-2.3,0.3c-0.9,0.5-1.4,1.2-1.6,2.2c-0.2,0.9,0,1.7,0.5,2.4C60.5,147.2,61.3,147.7,62.3,148z M66.7,142.2
		l0.6-2c1.1,0.6,1.9,1.3,2.4,2.3c0.5,1,0.6,2.2,0.3,3.5c-0.3,1.7-1.1,2.9-2.3,3.7c-1.2,0.8-2.8,1-4.7,0.6c-1.9-0.4-3.4-1.2-4.2-2.4
		c-0.9-1.2-1.2-2.6-0.9-4.2c0.3-1.5,1.1-2.7,2.3-3.5c1.2-0.8,2.8-1,4.7-0.6c0.1,0,0.3,0.1,0.5,0.1l-1.7,8.6c1.3,0.2,2.3,0,3.1-0.5
		c0.8-0.5,1.3-1.2,1.5-2.2c0.1-0.7,0.1-1.4-0.2-1.9C68,143.1,67.5,142.6,66.7,142.2z M67.1,152.7l1.8-0.2c0.1,0.6,0.1,1.1,0.1,1.5
		c0,0.7-0.2,1.3-0.4,1.7c-0.2,0.4-0.6,0.7-0.9,0.8c-0.4,0.1-1.2,0.2-2.4,0.2l-6.8-0.2l0,1.5l-1.5-0.1l0-1.5l-2.9-0.1l-1.1-2l4.1,0.1
		l0.1-2l1.6,0l-0.1,2l6.9,0.2c0.6,0,0.9,0,1.1-0.1c0.2-0.1,0.3-0.2,0.4-0.3s0.2-0.4,0.2-0.7C67.1,153.4,67.1,153.1,67.1,152.7z
		 M62.9,162.5c0.3,0.7,0.7,1.8,1,3.2c0.2,0.8,0.3,1.4,0.5,1.7c0.2,0.3,0.4,0.6,0.7,0.7c0.3,0.2,0.6,0.2,1,0.2c0.5,0,1-0.3,1.3-0.7
		c0.3-0.4,0.5-1,0.4-1.8c-0.1-0.8-0.3-1.4-0.6-2c-0.4-0.6-0.9-1-1.5-1.2c-0.5-0.2-1.1-0.2-2-0.2L62.9,162.5z M67.3,162
		c0.7,0.7,1.2,1.4,1.5,2c0.3,0.7,0.5,1.4,0.5,2.2c0.1,1.3-0.2,2.3-0.7,3c-0.6,0.7-1.4,1.1-2.3,1.2c-0.6,0-1.1-0.1-1.6-0.3
		c-0.5-0.2-0.9-0.5-1.2-0.9c-0.3-0.4-0.6-0.9-0.8-1.4c-0.1-0.4-0.3-1-0.4-1.7c-0.3-1.6-0.6-2.8-0.9-3.5c-0.3,0-0.4,0-0.5,0
		c-0.8,0.1-1.4,0.3-1.7,0.7c-0.4,0.5-0.6,1.3-0.5,2.3c0.1,0.9,0.3,1.6,0.6,2c0.4,0.4,1,0.7,1.8,0.9l-0.1,2c-0.8-0.1-1.5-0.4-2.1-0.7
		c-0.5-0.4-1-0.9-1.3-1.7c-0.3-0.7-0.5-1.6-0.6-2.6c-0.1-1,0-1.8,0.2-2.5c0.2-0.6,0.5-1.1,0.8-1.4c0.3-0.3,0.8-0.6,1.3-0.7
		c0.3-0.1,0.9-0.2,1.8-0.2l2.7-0.2c1.8-0.1,3-0.3,3.5-0.4c0.5-0.1,0.9-0.3,1.4-0.6l0.1,2.1C68.3,161.8,67.9,161.9,67.3,162z"/>
	<path class="st1" d="M110.5,135.1c-4.7-1.6-9-3.4-12.6-5.4l0,0c-2.3,3.9-4.2,7.8-5.8,11.6c4.1,2.3,8.9,4.4,14.3,6.1
		C107.5,143.3,108.9,139.2,110.5,135.1 M107.9,115.4c3,1.6,6.4,3.1,10.2,4.3c2.3-3.8,4.8-7.6,7.7-11.4c-3-0.9-5.7-1.9-8.1-3.1
		c-1.6,1.4-3.1,2.9-4.5,4.3C111.4,111.5,109.6,113.4,107.9,115.4z M117.3,121.2c-3.9-1.3-7.4-2.8-10.4-4.5
		c-3.1,3.8-5.8,7.7-8.2,11.6c3.6,2,7.8,3.8,12.4,5.4c0.9-2,1.8-4.1,2.8-6.2C115,125.4,116.1,123.3,117.3,121.2z M133.6,123.2
		c1-4,2.1-8.2,3.6-12.5c-3.4-0.4-6.6-1.1-9.6-1.9c-2.9,3.8-5.5,7.6-7.8,11.4c3.2,0.9,6.6,1.7,10.2,2.4
		C131.1,122.8,132.4,123,133.6,123.2z M130.7,138c0.6-4.1,1.4-8.5,2.5-13.2c-1.2-0.2-2.4-0.4-3.6-0.6c-3.8-0.7-7.4-1.5-10.7-2.5
		c-1.3,2.2-2.4,4.4-3.5,6.5c-1,2-1.9,4-2.7,5.9C118.1,135.8,124.2,137.1,130.7,138z M129.3,152.3c0.2-3.6,0.6-7.9,1.3-12.7
		c-6.7-0.9-12.9-2.2-18.5-4c-1.7,4.1-3,8.2-4.1,12.2c5,1.5,10.4,2.8,16.1,3.7C125.8,151.9,127.5,152.1,129.3,152.3z M84.7,136.2
		c1.4-4.1,3.3-8.1,5.5-11.9c0.4,0.4,0.9,0.8,1.4,1.2c1.4,1.2,3.1,2.3,4.9,3.4c-2.3,3.9-4.2,7.8-5.8,11.6
		C88.5,139.1,86.5,137.7,84.7,136.2z M169.2,100.3c0,0.1,0.1,0.2,0.1,0.3l0,0l0,0c4.4,9.6,8.6,28.2,9,31.5
		c0.9,9.6,0.1,19.1-1.8,28.3L171,158l1.8,5.8l1.8,5.8l4.4-5.1l4.4-5.1l-5.2,1.1c2-9.4,3.2-18,1.9-29c-0.3-2.5-5.2-23-9.4-29.4
		c16.2,17,23.8,29,28.8,44.8l-10.9,0l8.4,8l8.4,8l2.7-11.3l2.7-11.3l-7.2,5c-5-16.9-12.7-30.9-33.6-44.2
		C169.7,100.7,169.4,100.4,169.2,100.3z M128.2,205.1c-0.9-0.2-1.9-0.4-2.9-0.6c-0.5-2.2-0.8-4.3-1-6.5c-0.2-2.2-0.5-4.3-0.8-6.5
		c-1,1-2.2,1.6-3.7,1.8c-0.1-1-0.3-2.1-0.5-3.1c0.8-0.1,1.6-0.5,2.5-1.1c0.9-0.6,1.4-1.5,1.6-2.5c0.9,0.2,1.8,0.3,2.6,0.4
		c0.4,3,0.7,6,1,9C127.5,199.1,127.7,202.1,128.2,205.1z M103.8,198c-1.1-0.4-2.2-0.9-3.3-1.4c-0.9-2.1-1.6-4.1-2.2-6.2
		c-0.6-2-1.2-4.1-1.7-6.2c-1,0.6-2.3,0.8-4,0.6c-0.3-1-0.6-1.9-0.9-2.9c0.9,0.1,1.8,0,2.7-0.3c0.9-0.4,1.4-1,1.5-1.9
		c1,0.3,2,0.7,2.9,1c0.8,2.9,1.5,5.8,2.2,8.6C101.9,192.2,102.7,195.1,103.8,198z M109.9,183.8c1.7,0.4,3.2,1.3,4.3,2.8
		c0.7,0.9,1.3,1.9,1.8,3.2c0.5,1.3,0.8,2.7,1.1,4.4c0.3,1.7,0.3,3.1,0.3,4.2c0,1.1-0.2,2-0.6,2.6c-0.5,1-1.5,1.3-3,0.8
		c-1.5-0.5-3.1-1.5-4.5-3.2c-0.7-0.8-1.3-1.9-1.9-3.1c-0.5-1.2-1-2.7-1.4-4.4c-0.4-1.6-0.5-3-0.5-4.1c0-1.1,0.2-1.9,0.6-2.5
		C107,183.6,108.2,183.4,109.9,183.8z M110.5,186.6c-0.4-0.1-0.7-0.1-1,0.1c-0.3,0.2-0.4,0.6-0.4,1.2c0,0.8,0.2,2.2,0.6,4.3
		c0.4,2.1,0.8,3.5,1.2,4.3c0.4,0.8,0.7,1.4,1.1,1.8c0.4,0.3,0.7,0.6,1.1,0.7c0.4,0.1,0.7,0.1,0.9-0.1c0.3-0.2,0.4-0.6,0.4-1.2
		c0-0.8-0.1-2.2-0.5-4.3c-0.4-2.1-0.7-3.5-1.1-4.4c-0.3-0.8-0.7-1.4-1.1-1.7C111.3,186.9,110.9,186.7,110.5,186.6z M136.4,188.4
		c1.6,0.1,2.9,0.9,3.9,2.2c0.6,0.8,1,1.8,1.3,3c0.3,1.2,0.5,2.7,0.5,4.4c0,1.7-0.2,3.2-0.5,4.4c-0.3,1.2-0.6,2.2-1.1,2.9
		c-0.7,1.2-1.8,1.7-3.2,1.5c-1.4-0.2-2.7-1-3.7-2.5c-0.5-0.8-1-1.7-1.3-3c-0.3-1.2-0.4-2.7-0.6-4.4c-0.1-1.7-0.1-3.1,0.1-4.3
		c0.2-1.2,0.5-2.1,0.9-2.8C133.6,188.7,134.8,188.2,136.4,188.4z M136.6,191.2c-0.4,0-0.7,0.1-1,0.3c-0.3,0.3-0.5,0.7-0.6,1.4
		c-0.2,0.9-0.2,2.4-0.1,4.5c0.1,2.1,0.2,3.6,0.4,4.4c0.2,0.8,0.5,1.4,0.7,1.7c0.3,0.3,0.6,0.5,1,0.5c0.3,0,0.6-0.1,0.9-0.3
		c0.3-0.2,0.5-0.7,0.6-1.4c0.2-0.9,0.3-2.3,0.3-4.5c0-2.1-0.2-3.6-0.4-4.4c-0.2-0.8-0.5-1.4-0.9-1.7
		C137.4,191.4,137,191.3,136.6,191.2z M149.3,188.8c1.6,0,2.9,0.6,3.8,1.9c0.5,0.7,0.9,1.8,1.1,3c0.2,1.3,0.3,2.8,0.2,4.6
		c-0.1,1.8-0.5,3.3-0.9,4.5c-0.4,1.3-0.9,2.3-1.4,3c-0.9,1.2-2,1.9-3.4,1.8c-1.4-0.1-2.6-0.8-3.5-2.2c-0.5-0.7-0.8-1.7-1-2.9
		c-0.2-1.2-0.2-2.7-0.2-4.4c0-1.7,0.2-3.2,0.4-4.4c0.2-1.2,0.6-2.2,1.1-3C146.5,189.5,147.7,188.8,149.3,188.8z M149.4,191.7
		c-0.4,0-0.7,0.1-1,0.4c-0.3,0.3-0.5,0.8-0.7,1.5c-0.2,0.9-0.3,2.4-0.4,4.6c-0.1,2.2-0.1,3.6,0,4.4c0.1,0.8,0.3,1.4,0.6,1.6
		c0.3,0.3,0.6,0.4,0.9,0.4c0.4,0,0.7-0.1,1-0.4c0.3-0.3,0.5-0.8,0.8-1.5c0.3-0.9,0.6-2.4,0.7-4.6c0.1-2.2,0.1-3.7-0.1-4.5
		c-0.2-0.8-0.4-1.4-0.7-1.6C150.1,191.9,149.8,191.7,149.4,191.7z M162.9,207.3c-1,0-1.9,0.1-2.9,0.1c0.2-2.3,0.6-4.5,1-6.8
		c0.3-2.3,0.6-4.5,0.8-6.8c-1.3,1.3-2.7,2.2-4.3,2.9c0.1-1.1,0.1-2.2,0.2-3.3c0.8-0.3,1.8-0.9,2.8-1.8c1-0.9,1.7-1.9,2.2-3.1
		c0.9,0,1.8-0.1,2.6-0.1c-0.2,3.2-0.4,6.4-0.8,9.5C164,201,163.4,204.1,162.9,207.3z M173.8,206.2c-1,0.1-2,0.2-3,0.4
		c0.4-2.3,1-4.5,1.5-6.8c0.5-2.3,0.9-4.5,1.2-6.8c-1.4,1.4-2.9,2.4-4.6,3.1c0.1-1.1,0.3-2.2,0.4-3.3c0.9-0.4,1.9-1,3-2
		c1.1-0.9,1.9-2,2.4-3.2c0.9-0.1,1.8-0.2,2.7-0.3c-0.4,3.2-0.7,6.4-1.4,9.5C175.4,200,174.5,203.1,173.8,206.2z M188.5,185.5
		c1.8-0.4,3.1-0.1,3.9,1c0.5,0.6,0.7,1.5,0.8,2.7c0,1.2-0.2,2.7-0.7,4.5c-0.5,1.8-1.3,3.3-2,4.7c-0.8,1.3-1.6,2.5-2.4,3.4
		c-1.3,1.5-2.8,2.5-4.5,2.9c-1.6,0.4-2.7-0.1-3.3-1.3c-0.3-0.6-0.4-1.5-0.3-2.7c0.1-1.2,0.5-2.7,0.9-4.5c0.4-1.8,0.9-3.3,1.4-4.7
		c0.5-1.3,1.1-2.4,1.8-3.3C185.3,186.8,186.8,185.9,188.5,185.5z M188,188.5c-0.4,0.1-0.8,0.3-1.2,0.6c-0.4,0.3-0.7,0.9-1,1.7
		c-0.4,1-0.8,2.6-1.4,4.8c-0.6,2.2-1,3.7-1.1,4.5c-0.1,0.8,0,1.3,0.2,1.5c0.2,0.2,0.5,0.3,0.9,0.2c0.4-0.1,0.8-0.3,1.2-0.7
		c0.4-0.3,0.8-0.9,1.3-1.7c0.6-1,1.3-2.5,1.9-4.8c0.6-2.2,0.9-3.7,0.8-4.5c-0.1-0.8-0.2-1.3-0.5-1.5
		C188.8,188.5,188.5,188.5,188,188.5z M200.6,199c-1.2,0.5-2.4,1-3.6,1.5c0.9-2.2,1.9-4.4,2.8-6.7c0.9-2.2,1.5-4.5,2.2-6.7
		c-1.7,1.7-3.6,3.1-5.6,4.2c0.3-1.1,0.6-2.2,0.8-3.3c1-0.6,2.2-1.5,3.6-2.7c1.4-1.2,2.4-2.5,3.1-3.8c1.1-0.4,2.1-0.7,3.2-1.1
		c-0.7,3.1-1.4,6.3-2.5,9.3C203.4,192.9,201.9,195.9,200.6,199z M192,104c30.5,23.1,36.5,66.7,13.4,97.2
		c-23.1,30.5-66.7,36.5-97.2,13.4c-24.2-18.3-33-49.4-24.1-76.7c1.7,1.4,3.7,2.8,5.9,4.1c-1.3,3.2-2.2,6.2-3,9.1
		c-0.1,0.4,0.2,0.9,0.6,1c0.4,0.1,0.9-0.2,1-0.6c0.7-2.8,1.6-5.7,2.8-8.7c4.2,2.3,9.1,4.4,14.5,6.2c-0.8,3-1.4,6-1.9,9
		c-0.1,0.4,0.2,0.9,0.7,0.9c0.4,0.1,0.9-0.2,0.9-0.7c0.5-2.9,1.1-5.9,1.9-8.8c5,1.5,10.5,2.8,16.3,3.8c1.8,0.3,3.6,0.6,5.4,0.8
		c-0.2,4-0.2,7.1-0.2,9.1c0,0.4,0.4,0.8,0.8,0.8c0.4,0,0.8-0.4,0.8-0.8c0-1.9,0-5,0.2-8.9c1.7,0.2,3.5,0.4,5.2,0.5
		c4.2,0.3,8.5,0.5,12.9,0.5h0.2c0.4,0,0.8-0.4,0.8-0.8s-0.4-0.8-0.8-0.8H149c-4.3,0-8.6-0.2-12.8-0.5c-1.8-0.1-3.5-0.3-5.3-0.5
		c0.2-3.6,0.6-7.9,1.3-12.7c5.4,0.7,11.1,1,17,1c0.4,0,0.8-0.4,0.8-0.8s-0.4-0.8-0.8-0.8c-5.8,0-11.5-0.4-16.8-1
		c0.6-4.1,1.4-8.5,2.5-13.2c1.4,0.2,2.8,0.3,4.2,0.4c3.2,0.3,6.5,0.4,10,0.4h0.1c0.4,0,0.8-0.4,0.8-0.8c0-0.4-0.4-0.8-0.8-0.8H149
		c-3.3,0-6.6-0.2-9.8-0.4c-1.3-0.1-2.6-0.3-3.9-0.4c1-4,2.2-8.2,3.6-12.5c3.2,0.4,6.6,0.6,10.1,0.6c0.6,0-0.2,0,0.2,0h0.1
		c0.4,0,0.8-0.4,0.8-0.8c0-0.4-0.4-0.8-0.8-0.8h-0.1c-0.2,0,0.5,0-0.1,0c-3.3,0-6.5-0.2-9.5-0.5c1.2-3.6,2.6-7.2,4.2-10.9
		c0.2-0.4,0-0.9-0.4-1.1c-0.4-0.2-0.9,0-1.1,0.4c-1.6,3.8-3.1,7.6-4.3,11.3c-3.2-0.4-6.3-1-9.1-1.7c2.6-3.3,5.4-6.6,8.6-9.9
		c0.3-0.3,0.3-0.8,0-1.1c-0.3-0.3-0.8-0.3-1.1,0c-3.3,3.5-6.3,7-9.1,10.5c-2.9-0.8-5.5-1.8-7.8-2.9c0.8-0.7,1.6-1.3,2.4-2
		c2.9-2.4,6-4.6,9.2-6.7c0,0,0,0,0,0h0c0.4-0.2,0.5-0.7,0.3-1.1c-0.2-0.4-0.7-0.5-1.1-0.3c0,0,0,0,0,0c-3.3,2.1-6.4,4.4-9.4,6.8
		c-1,0.8-2,1.6-2.9,2.5c0,0-0.1,0-0.1,0c-1.4-0.8-2.7-1.6-3.9-2.5c-0.1-0.1-0.2-0.2-0.3-0.2c-0.5,0.3-1,0.6-1.4,0.9
		c0.2,0.2,0.5,0.4,0.8,0.6c1.1,0.8,2.3,1.6,3.7,2.4c-1.4,1.3-2.8,2.6-4.1,4c-2,2-3.8,4.1-5.6,6.2c-2.2-1.3-4-2.7-5.5-4.3
		c-0.4,0.4-0.8,0.8-1.1,1.2c1.6,1.5,3.4,3,5.6,4.3c-3.1,3.8-5.8,7.7-8.2,11.6c-1.7-1-3.3-2.1-4.7-3.3c-0.5-0.4-1-0.9-1.5-1.3
		c1.2-1.9,2.4-3.7,3.8-5.5C118,86.8,161.5,80.8,192,104z"/>
	<path class="st0" d="M133.7,124.9c-1.3-0.2-2.5-0.4-3.7-0.6c-4-0.7-7.7-1.6-11.1-2.6c-1.3,2.3-2.5,4.5-3.6,6.8c-1,2-2,4.1-2.8,6.1
		c5.7,1.7,12,3.1,18.7,4C131.7,134.4,132.6,129.8,133.7,124.9"/>
</g>
</svg>