<svg width="46" height="45" viewBox="0 0 46 45" fill="none" xmlns="http://www.w3.org/2000/svg">
<rect x="7.66602" y="5.625" width="30.6667" height="33.75" rx="2" fill="#FFC700"/>
<path d="M16.291 12.1875L29.7077 12.1875" stroke="#062D73" stroke-linecap="round"/>
<path d="M16.291 17.8125L23.9577 17.8125" stroke="#062D73" stroke-linecap="round"/>
<path d="M16.291 23.4375L27.791 23.4375" stroke="#062D73" stroke-linecap="round"/>
<path d="M7.66602 35.625C7.66602 33.9813 7.66602 33.1594 8.11999 32.6062C8.2031 32.5049 8.29596 32.4121 8.39723 32.329C8.9504 31.875 9.77227 31.875 11.416 31.875H34.3327C36.2183 31.875 37.1611 31.875 37.7469 31.2892C38.3327 30.7034 38.3327 29.7606 38.3327 27.875V26.25V35.375C38.3327 37.2606 38.3327 38.2034 37.7469 38.7892C37.1611 39.375 36.2183 39.375 34.3327 39.375H11.416C9.77227 39.375 8.9504 39.375 8.39723 38.921C8.29596 38.8379 8.2031 38.7451 8.11999 38.6438C7.66602 38.0906 7.66602 37.2687 7.66602 35.625Z" fill="#062D73"/>
</svg> 