<svg width="39" height="44" viewBox="0 0 39 44" fill="none" xmlns="http://www.w3.org/2000/svg">
  <path d="M34.5 36C36.433 36 38 37.567 38 39.5C38 41.433 36.433 43 34.5 43C32.567 43 31 41.433 31 39.5C31 37.567 32.567 36 34.5 36Z" fill="#FFC700" stroke="#062D73" stroke-width="1.2"/>
  <path d="M28.5 24C30.433 24 32 25.567 32 27.5C32 29.433 30.433 31 28.5 31C26.567 31 25 29.433 25 27.5C25 25.567 26.567 24 28.5 24Z" fill="#FFC700" stroke="#062D73" stroke-width="1.2"/>
  <path d="M5.04816 1C6.79268 1 8.32312 2.16326 8.79003 3.84414C9.56945 6.65003 7.09777 9.28374 4.24811 8.68381L4.06831 8.64596C2.28007 8.26949 0.999997 6.69186 0.999997 4.86443C0.999997 2.73016 2.73016 1 4.86442 1L5.04816 1Z" fill="#FFC700" stroke="#062D73" stroke-width="1.2"/>
  <path d="M5 10V35C5 36.8856 5 37.8284 5.58579 38.4142C6.17157 39 7.11438 39 9 39H31" stroke="#062D73" stroke-width="3"/>
  <path d="M5 9V23C5 24.8856 5 25.8284 5.58579 26.4142C6.17157 27 7.11438 27 9 27H25" stroke="#062D73" stroke-width="3"/>
</svg>