<svg width="68" height="112" viewBox="0 0 68 112" fill="none" xmlns="http://www.w3.org/2000/svg">
  <path d="M34 1V5.5" stroke="#062D73" stroke-width="2" stroke-linecap="round"/>
  <path d="M34 20.5V22.5" stroke="#33363F" stroke-width="2" stroke-linecap="round"/>
  <path d="M34 61.5V38" stroke="#062D73" stroke-width="2" stroke-linecap="round"/>
  <path d="M39 24.6C39 24.0399 39 23.7599 38.891 23.546C38.7951 23.3578 38.6422 23.2049 38.454 23.109C38.2401 23 37.9601 23 37.4 23H7.21251C6.92484 23 6.781 23 6.64857 23.0371C6.53127 23.07 6.42097 23.1241 6.32309 23.1966C6.2126 23.2785 6.12445 23.3922 5.94816 23.6195L1.7604 29.0195C1.48838 29.3702 1.35237 29.5456 1.30008 29.7392C1.25394 29.91 1.25394 30.09 1.30008 30.2608C1.35237 30.4544 1.48838 30.6298 1.7604 30.9805L5.94816 36.3805C6.12445 36.6078 6.2126 36.7215 6.32309 36.8034C6.42097 36.8759 6.53127 36.93 6.64857 36.9629C6.781 37 6.92484 37 7.21251 37H37.4C37.9601 37 38.2401 37 38.454 36.891C38.6422 36.7951 38.7951 36.6422 38.891 36.454C39 36.2401 39 35.9601 39 35.4V24.6Z" fill="#FFC700" stroke="#062D73" stroke-width="2"/>
  <path d="M29 7.6C29 7.03995 29 6.75992 29.109 6.54601C29.2049 6.35785 29.3578 6.20487 29.546 6.10899C29.7599 6 30.0399 6 30.6 6H60.7875C61.0752 6 61.219 6 61.3514 6.03713C61.4687 6.07002 61.579 6.12406 61.6769 6.1966C61.7874 6.2785 61.8755 6.39216 62.0518 6.61948L66.2396 12.0195C66.5116 12.3702 66.6476 12.5456 66.6999 12.7392C66.7461 12.91 66.7461 13.09 66.6999 13.2608C66.6476 13.4544 66.5116 13.6298 66.2396 13.9805L62.0518 19.3805C61.8755 19.6078 61.7874 19.7215 61.6769 19.8034C61.579 19.8759 61.4687 19.93 61.3514 19.9629C61.219 20 61.0752 20 60.7875 20H30.6C30.0399 20 29.7599 20 29.546 19.891C29.3578 19.7951 29.2049 19.6422 29.109 19.454C29 19.2401 29 18.9601 29 18.4V7.6Z" fill="#FFC700" stroke="#062D73" stroke-width="2"/>
</svg>